<?xml version="1.0" encoding="utf-8"?>
<!-- Generator: Adobe Illustrator 16.0.0, SVG Export Plug-In . SVG Version: 6.00 Build 0)  -->
<!DOCTYPE svg PUBLIC "-//W3C//DTD SVG 1.1//EN" "http://www.w3.org/Graphics/SVG/1.1/DTD/svg11.dtd">
<svg version="1.1" xmlns="http://www.w3.org/2000/svg" xmlns:xlink="http://www.w3.org/1999/xlink" x="0px" y="0px"
	 width="458.42px" height="79px" viewBox="0 0 458.42 79" style="enable-background:new 0 0 458.42 79;" xml:space="preserve">
<style type="text/css">
<![CDATA[
	.st0{display:inline;fill:none;stroke:#000000;stroke-miterlimit:10;}
	.st1{display:inline;stroke:#000000;stroke-width:3;stroke-miterlimit:10;}
	.st2{display:inline;fill:none;stroke:#000000;stroke-width:4;stroke-miterlimit:10;}
	.st3{fill:none;stroke:#000000;stroke-miterlimit:10;}
	.st4{display:inline;}
	.st5{display:inline;fill:none;stroke:#000000;stroke-width:2;stroke-miterlimit:10;}
	.st6{display:none;}
]]>
</style>
<g id="Images" class="st6">
	
		<image style="overflow:visible;" width="1598" height="360" xlink:href="../../../../../../../../../Users/Tommykrueger/Desktop/Design/AtlanticBattle/VIIC.jpg"  transform="matrix(0.24 0 0 0.24 35.4204 43.75)">
	</image>
	
		<image style="overflow:visible;" width="807" height="418" xlink:href="../../../../../../../../../Users/Tommykrueger/Desktop/Design/AtlanticBattle/ss-john-w-brown-liberty-ship.png"  transform="matrix(0.6537 0 0 0.6537 -74.0801 -129.2495)">
	</image>
	
		<image style="overflow:visible;" width="661" height="409" xlink:href="../../../../../../../../../Users/Tommykrueger/Desktop/Design/AtlanticBattle/uss-cv-9-essex-1944-aircraft-carrier.png"  transform="matrix(0.749 0 0 0.749 -21.5796 -66.2563)">
	</image>
	
		<image style="display:inline;overflow:visible;" width="3014" height="1218" xlink:href="../../../../../../../../../Users/Tommykrueger/Desktop/Design/AtlanticBattle/bism40.gif"  transform="matrix(0.1544 0 0 0.1544 -6.9546 -27.25)">
	</image>
</g>
<g id="submarine" class="st6">
	<polyline class="st0" points="78.17,95.542 80.045,89.459 81.67,89.375 83.629,95.084 	"/>
	<polyline class="st0" points="373.67,93.25 391.337,83.083 415.753,92.25 	"/>
	<line class="st0" x1="391.004" y1="93.333" x2="392.087" y2="83.5"/>
	<line class="st0" x1="402.087" y1="92.417" x2="403.087" y2="87.667"/>
	<path class="st3" d="M392.253,84.667"/>
	<path class="st4" d="M36.795,98.75l46.125-3.5l65.5-2l59.5,0.5l2.917-10.418l18.333-0.083l1.75-8.499h21.5l0.584,1.166l-1.5,0.083
		l0.083,13.5c0,0,4.943,0.571,6.083,1.833c0.428,0.473,0.5,2.834,0.5,2.834S379.545,92.5,418.42,91.75c1.008-0.02,0.827,3.047,0.5,4
		c-0.631,1.839-5.475,7.979-7.625,10.375c-4.375,4.875-8.427,7.073-11.875,9.625c-6.25,4.625-64.223,13.509-86,14
		c-44.333,1-190-0.5-190-0.5l-5.25-7.25l-23.625-4.5l-34.875,0.125l-3-6.542c0,0-0.083,7.167-1.333,9.083
		c-0.42,0.644-6,0.167-6,0.167s-1.75-9.167-1.083-10.167c0.729-1.093,5.083-1.333,5.083-1.333L39.42,106.25c0,0-2.709-0.89-3.5-3
		C35.17,101.25,36.795,98.75,36.795,98.75z"/>
	<polygon class="st4" points="234.587,75 234.837,52.917 235.421,44 235.837,74.917 	"/>
	<polygon class="st4" points="248.504,74.833 248.587,65 248.921,58.667 249.421,65.417 249.504,74.833 	"/>
	<polyline class="st0" points="211.504,83.75 207.504,77 225.421,77 231.212,75.25 	"/>
	<line class="st0" x1="209.92" y1="77.251" x2="213.795" y2="83.918"/>
	<line class="st0" x1="225.379" y1="77.168" x2="225.795" y2="84.085"/>
	<line class="st0" x1="218.629" y1="76.96" x2="218.587" y2="83.835"/>
	<polyline class="st0" points="59.504,115.666 56.67,115.666 56.254,120.999 65.504,124.501 69.337,124.583 80.004,118.167 
		83.92,117.167 	"/>
	<polygon class="st0" points="65.837,124.499 65.837,116.666 68.504,116.666 68.837,124.501 	"/>
</g>
<g id="convoy" class="st6">
	<line class="st5" x1="282.17" y1="88.5" x2="261.42" y2="54.75"/>
	<line class="st5" x1="350.421" y1="88.583" x2="325.42" y2="46.417"/>
	<line class="st5" x1="355.17" y1="89.625" x2="380.087" y2="44.25"/>
	<line class="st5" x1="118.92" y1="87" x2="95.087" y2="47.75"/>
	<line class="st5" x1="128.67" y1="87" x2="152.42" y2="47.417"/>
	<line class="st2" x1="123.754" y1="82.083" x2="123.795" y2="44.875"/>
	<path class="st4" d="M7.92,94.583l12-0.333l2.667-3.916l9.667-5l7.917,0.083l0.25,2.833h16.5v4.5l59.917,1.834l1.583-12.417
		c0,0,3.167-1.667,5.5-1.667c2.417,0,5,1.875,5,1.875l1.5,12.375l42,1l3.167-6.333v-4.833l3.5,0.083l-0.083-5.167l2.25,0.084
		l1,4.916l4.667,0.75l14.667,0.001l1.083-7.584l4.25,0.083l1.333-6.499h5.167v5.999l10,0.334l-0.333-15.667c0,0,3-2.167,6.5-2.167
		c4,0.001,6.166,2.333,6.166,2.333l0.167,16.333l10.167-0.167l0.833-2.833l7.333-0.167l-0.333,4l-2.833,0.334v8.666l-0.167,8l29.5-1
		l1.167-12.833l9.166-0.167l0.667,2l6.667,0.167l0.833,10.333l49.667-1.166l1.333-6.167h6l1.167,6.5l45.333-2.167l13.167-1
		l1.166-4.667l6.334-0.5l3.666-3.667h7.5l-0.166,7.5l11.833-1.667c0,0-5.667,31-15,41.333c-1.21,1.34-6.833,2.334-6.833,2.334
		l-392,0.666c0,0,2.5-4.833,2.333-7.833c-0.156-2.805-3.488-8.244-6-9.5c-3-1.5-11.33-3.269-14.5-5.5
		C9.42,106.083,7.92,94.583,7.92,94.583z"/>
	<line class="st1" x1="353.087" y1="88.084" x2="353.045" y2="55.375"/>
	<line class="st1" x1="285.254" y1="83.583" x2="285.191" y2="56.854"/>
</g>
<g id="aircraftcarrier" class="st6">
	<polygon class="st4" points="-9.913,91.083 179.42,91.417 178.087,84.083 186.42,81.417 187.42,90.417 191.754,90.083 
		190.754,81.083 201.087,80.75 202.42,89.417 206.42,90.417 206.754,81.083 204.087,79.417 204.754,77.083 210.42,76.417 
		214.42,70.75 218.42,71.083 219.254,65.917 223.587,64.417 226.087,72.083 226.087,61.417 228.42,52.083 237.753,51.75 
		245.087,52.083 246.42,47.75 252.087,47.583 251.42,52.083 248.753,54.417 246.753,63.083 247.087,71.417 256.587,56.417 
		259.087,67.417 270.087,68.083 274.087,72.75 273.753,80.417 279.42,80.917 279.92,88.75 286.087,88.083 286.753,81.083 
		289.42,81.75 290.753,88.417 292.92,82.417 299.753,83.417 300.253,89.75 306.753,90.083 307.087,84.75 313.92,86.75 
		313.753,90.083 460.087,90.75 461.087,93.417 449.42,94.083 449.753,99.417 461.087,98.75 461.087,101.083 458.753,101.75 
		458.753,105.083 454.087,116.417 453.753,133.417 451.087,136.083 63.087,137.083 61.754,131.75 36.754,127.75 32.087,136.417 
		18.754,137.417 18.42,125.75 3.754,121.083 -2.58,117.083 -6.246,107.75 -11.246,106.75 -11.58,102.75 1.754,103.417 1.754,95.083 
		-12.246,95.417 	"/>
	<path class="st4" d="M240.837,52.251V40.084c0,0-1.917-2-1.667-3.583c0.248-1.572,1.917-1.418,1.917-1.418l1.583,2.168l0.083,6.25
		v8.833L240.837,52.251z"/>
</g>
<g id="Layer_5">
	<path d="M0.004,49.167L77.42,51v-2.25l-2.5-1.25l-21-0.25V46l23.25-0.75l4.75-2.5l17.792,0.042l3.417,1.917l0.042,4.333
		l-6.458,0.375L96.67,51.25h11.75l1.292-7.917h1.542l0.083-1.167L109.17,41l-21.083-0.958L88.129,39l22.792-0.5l5.542-2.708
		l17.333,0.042l3.542,2.208l-0.125,4.167l-6.542,0.542v4.292l5.125,0.042V45.75l2.125-0.25l1.75-1.5l-0.042-6.167l-0.833-2.792
		L145.17,35v2.75v4.5l3.208,0.083l0.583-4.792l3.667-0.083l0.042-4.708l3.792,0.042l1.958,0.041l-0.167-0.75l-1.208-0.375
		l0.042-4.125l7.167,0.042l0.208,3.875l-1.042,0.292V33.5l3.75,1.291v2.75l8.75-0.041l1-8l-0.75-2.75l7.125,0.041l-0.917,2.417
		v5.542l2.042,0.042l0.042-6.667L190.17,28l0.208-2.168h3.5l0.083,5.458l10.833,0.125l-0.125,2.834l-2.792,1.374l-0.125,1.875
		l-3,1.833l2.375,0.083l0.083,2.292l2.917-0.25l0.042,5.042l13,0.001l0.75-12.75h-1.75l0.25-4.461l-1.167-0.75l0.042-5.208
		l1.875,0.169l0.833-4.086l13.917-4.164l3.583,0.039l0.042,3l1.875,1.211l0.208,10.873l4.292,3.377l7.25,0.5l1.25-9.5l-7.5-1.75
		l4.5-0.5v-2l1.75-0.5v-5.25l1-2.5l-4.792-1.796V7.579l6.042-0.329l1.25-2.75l-1.25-1l0.75-3.5h5.75l1,3.25l-1.5,1.5l0.25,1.5
		l7.25,0.5v3l-2.542,1.537l-0.041,1.208L270.17,13l0.25,2.5l-6.542,1.204l0.417,1.667l0.375,4.379l4.25,3.5l0.75,5.25h2.5l0.5-4.5
		l0.583-4.837l6.375,0.042l0.042,3.333l7.75,1.712l3,2.25l3.167,0.497l0.041,4.333l12.292,1.17v7.75l4,3.5l5.375,0.039v-4.542
		l-6.5-0.25l0.167-4.375l3.375-1.958l17.166,0.042l4.5,2.375l2.917,0.419l21.125,0.332v1.125l-20.833,0.583l-2.5,1.667l-0.042,8.542
		l13-0.248l0.5-2l-6.417-0.127v-4.25l3.459-2.125l17.166,0.083l5.292,2.668l23.25,0.416l0.042,1.083l-20.834,0.542l-2.166,1.458
		l-0.042,1.25l6.25,0.001l0.125-1.126l13.333-0.292l-0.708,1.542l34.25-1.374L458.42,45l-0.5,2.25c0,0-7.499,8.667-10.75,15.25
		c-3.054,6.184-3.75,16.25-3.75,16.25L50.42,79l-1.583-1.5l-12.667-1v-1.25c0,0,2.917-0.326,3.333-1.083
		c0.62-1.125,0.417-3.583-1.583-4.333C36.785,69.408,33.17,69,33.17,69l-1,7l-8.583-0.083l-1.25-7.75c0,0-7.142-1.354-9.417-2.167
		c-2.117-0.756-6.478-3.207-7.833-4.417C-0.33,56.75,0.004,49.167,0.004,49.167z"/>
</g>
</svg>
